<?xml version="1.0" encoding="utf-8"?>
<!-- Generator: Adobe Illustrator 21.0.0, SVG Export Plug-In . SVG Version: 6.00 Build 0)  -->
<svg version="1.1" id="Layer_1" xmlns="http://www.w3.org/2000/svg" xmlns:xlink="http://www.w3.org/1999/xlink" x="0px" y="0px"
	 viewBox="0 0 1240.2 385" style="enable-background:new 0 0 1240.2 385;" xml:space="preserve">
<style type="text/css">
	.st0{fill:#FFFFFF;stroke:#FFFFFF;stroke-width:4;stroke-miterlimit:10;}
	.st1{fill:#FFFFFF;}
</style>
<g>
	<path class="st0" d="M1129.6,154.1c5.5,0,11,0.5,16.6,1.4c5.6,1,11,2.4,16.1,4.3c8,2.9,15.7,6.6,22.9,11.1
		c7.2,4.5,13.9,9.8,20,15.9c6.1,6.1,11.5,12.9,16.1,20.2c4.7,7.4,8.3,15.3,10.8,23.6c2.6,8,4.3,16.4,5.1,25.1
		c0.8,8.7,0.9,17.4,0.2,26c-0.6,8.4-2.4,16.6-5.3,24.6c-2.9,8-6.6,15.7-11.1,23.1c-4.5,7.4-9.8,14.2-15.9,20.5
		c-6.1,6.3-12.9,11.8-20.2,16.6c-7.1,4.2-14.7,7.6-22.9,10.1c-8.2,2.6-16.5,4.2-24.8,4.8c-1.6,0.3-3.1,0.6-4.6,0.7
		c-1.4,0.2-3,0.2-4.6,0.2c-1.6,0.3-3.1,0.5-4.6,0.5s-3,0-4.6,0c-5.5,0-10.8-0.3-16.1-1c-5.3-0.6-10.7-1.6-16.1-2.9
		c-8-2.6-15.8-6-23.4-10.4c-7.6-4.3-14.5-9.2-21-14.7c-6.1-6.1-11.7-12.8-16.6-20c-5-7.2-9.1-14.9-12.3-22.9
		c-2.3-6.4-4-12.8-5.3-19.3c-1.3-6.4-1.9-13-1.9-19.8c0-1,0-1.9,0-2.9s0-1.9,0-2.9c0-0.6,0.1-1.4,0.2-2.4c0.2-1,0.2-1.9,0.2-2.9
		c0.6-8.7,2.3-17.2,5.1-25.5c2.7-8.4,6.2-16.2,10.4-23.6c4.5-7.4,9.6-14.2,15.2-20.5c5.6-6.3,12-12,19-17.1
		c7.4-4.8,15.1-8.8,23.1-11.8c8-3,16.2-5.2,24.6-6.5c4.2-0.6,8.4-1.1,12.8-1.4c4.3-0.3,8.6-0.3,12.8,0V154.1z M1135.4,193.2
		c-1.3,0-2.5-0.1-3.6-0.2c-1.1-0.2-2.2-0.2-3.1-0.2c-1.3-0.3-2.5-0.5-3.6-0.5c-1.1,0-2.3,0-3.6,0c-1.6,0-3.2,0.1-4.8,0.2
		c-1.6,0.2-3.2,0.2-4.8,0.2c-1.6,0.3-3.2,0.6-4.8,1c-1.6,0.3-3.2,0.8-4.8,1.4c-6.4,1.6-12.4,4.1-17.8,7.5
		c-5.5,3.4-10.4,7.6-14.9,12.8c-3.9,4.2-7.2,8.5-10.1,13c-2.9,4.5-5.3,9.5-7.2,14.9c-1.3,5.5-2.3,11.1-2.9,16.9
		c-0.6,5.8-0.8,11.6-0.5,17.4c0.3,5.5,1.3,10.9,2.9,16.4c1.6,5.5,3.7,10.6,6.3,15.4c2.6,5.1,5.8,9.7,9.6,13.7c3.9,4,8,7.8,12.5,11.3
		c4.8,3.2,9.9,5.9,15.2,8c5.3,2.1,10.7,3.5,16.1,4.1c1.9,0.3,3.9,0.6,5.8,0.7c1.9,0.2,3.7,0.2,5.3,0.2c3.9,0,7.7-0.3,11.6-1
		c3.9-0.6,7.5-1.6,11.1-2.9c5.5-1.6,10.5-3.9,15.2-6.7c4.7-2.9,9.1-6.4,13.3-10.6c4.2-3.5,7.9-7.7,11.1-12.5
		c3.2-4.8,5.8-9.8,7.7-14.9c1.6-3.9,2.7-7.7,3.4-11.6c0.6-3.9,1-7.9,1-12c0-1.6,0-3.3,0-5.1c0-0.9,0-1.7-0.1-2.6
		c-0.2-1.6-0.3-3.2-0.3-4.7c0.1-5-0.4-9.8-1.5-14.6c-1.3-5.5-3.2-10.8-5.8-15.9c-2.6-5.5-5.8-10.4-9.6-14.7
		c-3.9-4.3-8-8.1-12.5-11.3c-4.5-3.5-9.4-6.3-14.7-8.4c-5.3-2.1-10.8-3.4-16.6-4.1V193.2z"/>
</g>
<g>
	<g>
		<path class="st0" d="M583.6,153.7c2.6,0,5.1,0,7.7,0c2.6,0,5.1,0.2,7.7,0.5c5.1,0.3,10.3,0.9,15.6,1.7c5.3,0.8,10.3,2,15.1,3.6
			c7.4,2.2,14.6,5.2,21.6,8.9c7,3.7,13.6,7.9,19.7,12.7c6.7,6.1,12.7,12.6,18,19.7c0.1,0.1,0.2,0.2,0.2,0.3
			c8.5,11.4,4.9,27.6-7.4,34.6l-99.1,52.2c-9.1,5.2-20.7,2-26-7.1v0c-5.1-8.9-2.1-20.3,6.9-25.5l70.3-36.4c5.6-3.2,6.3-11,1.4-15.2
			l-0.1-0.1c-3.4-2.9-7.3-5.4-11.8-7.7c-4.5-1.9-9.2-3.5-14.2-4.8c-4.6-1.2-9.3-2-14.1-2.3c-0.7-0.1-1.4-0.1-2.1-0.1
			c-4.4,0.1-8.8,0.5-13.1,1.2c-4.6,0.8-9.2,2-13.7,3.6c-9.9,3.2-18.6,8.6-25.9,16.3c-7.4,7.7-12.6,16.6-15.8,26.9
			c-0.6,2.2-1.2,4.6-1.7,7c-0.5,2.4-0.9,4.7-1.2,7c-0.3,2.2-0.5,4.6-0.5,7c0,2.4,0,4.7,0,7c0.3,7.4,1.5,14.5,3.6,21.4
			c2.1,6.9,5,13.5,8.9,19.9c3.5,6.1,7.9,11.8,13.2,17c5.3,5.3,11,9.8,17,13.7c5.4,2.9,11.1,5,17,6.2c5.9,1.3,11.9,1.9,18,1.9
			c3.5,0,7-0.2,10.3-0.5c3.4-0.3,6.6-1,9.8-1.9c4.5-1.6,8.8-3.5,13-5.8c4.2-2.2,8.2-4.6,12-7.2c4.2-2.9,7.8-6.2,11-9.8
			c2.9-3.3,5.4-6.8,7.5-10.5c0.4-0.9,0.9-1.9,1.3-2.8c1.6-4.3,2.4-6.6,3.4-11.1l0.6-2.2c1.9-8.3,8.4-13.6,19-11.5l9,1.8
			c8.6,1.7,14.1,10.2,12,18.7c-0.7,2.6-1.4,5.2-2.3,7.8c-2.6,7.4-5.9,14.4-10.1,21.1c-4.2,6.7-9,12.9-14.4,18.5
			c-5.4,5.6-11.4,10.6-17.8,15.1c-6.7,4.5-13.7,8.2-20.9,11c-7.2,2.9-14.6,4.8-22.3,5.8c-1.9,0.3-3.8,0.6-5.8,1
			c-1.9,0.3-3.8,0.6-5.8,1l0,0h-6.2c-1.9,0-3.8,0-5.8,0c-3.8,0-7.7-0.2-11.5-0.5c-3.4-0.3-6.7-0.7-10.1-1.2
			c-0.9-0.1-1.9-0.2-2.8-0.4c-7.2-0.7-14.2-2.5-21.1-5.4c-6.9-2.9-13.4-6.4-19.5-10.5c-0.7-0.6-1.4-1.1-2.2-1.7
			c-11.4-9.7-20.9-21-28.5-33.9c-7.4-12.5-12.9-25.8-16.4-39.9c-0.4-3-0.7-5.9-1.1-8.9l0-1.1c0-2.4,0-4.7,0-7c0-1.9,0-3.8,0-5.5
			c0-1.1,0.1-2.1,0.2-3.1c0.2-1.4,0.3-2.8,0.3-4.1c0.1-2.8,0.3-5.7,0.7-8.6c0.5-3.7,1-7.1,1.7-10.3c1.6-7.7,3.8-15.1,6.7-22.3
			c2.9-7.2,6.4-14.2,10.6-20.9c4.5-6.4,9.7-12.2,15.6-17.5c5.9-5.3,12.4-9.8,19.4-13.7c7-3.8,14.3-6.8,21.8-8.9
			c7.5-2.1,15.3-3.3,23.3-3.6V153.7z"/>
	</g>
	<path class="st0" d="M583.6,153.7c0,0-33-2.5-66.1,28l15,2.1l32.4-18.7l13.4-3.7l5.5-1.6l3.4-1.9l-3-3.3L583.6,153.7z"/>
</g>
<g>
	<g>
		<path class="st0" d="M857.3,154.3v15.8V192c0,0,0,0,0,0L857.3,154.3C857.3,154.3,857.3,154.3,857.3,154.3z"/>
		<g>
			<path class="st0" d="M857.3,170.1v-15.8c-0.1,0-0.3,0-0.4,0c0,0-0.1,0-0.1,0c0.2,0,0.3,0,0.5,0L857.3,170.1z"/>
			<path class="st0" d="M835.4,157c0.7-0.2,1.6-0.4,2.5-0.6C837,156.6,836.2,156.8,835.4,157z"/>
			<path class="st0" d="M845.1,165c1.3,0.3,2.6-9.8,3.9-10c1-0.1,1.9-0.2,2.9-0.2c0.7,0,1.3-0.1,2-0.2c0.9-0.2,1.9-0.3,2.8-0.3
				c-3.8-0.1-7.9,0.3-11.6,0.9v0.1V165z"/>
			<path class="st0" d="M834.8,157.1c0.2,0,0.3-0.1,0.5-0.1C835.2,157,835,157.1,834.8,157.1z"/>
			<path class="st0" d="M845.1,155.1c-2.7,0.4-5.2,0.9-7.2,1.3c2.4-0.5,4.8-0.9,7.2-1.2V155.1z"/>
			<g>
				<path class="st0" d="M814.2,164.6c-9.8,4.9-18.6,11.1-26.5,18.6c-8.2,9.1-14.6,19.5-19.4,31.1c-4.7,11.6-7.1,23.4-7.1,35.5
					v117.7c0,8.6,7,15.6,15.6,15.6h11c8.6,0,15.6-7,15.6-15.6v-104c0-3.3,0.1-6.5,0.2-9.8c0.2-3.3,0.4-6.5,0.7-9.8
					c0.3-2.9,0.8-6,1.5-9.3c0.7-3.3,1.3-6.5,2-9.8c2.6-7.5,6.9-13.9,13-19.1c1-0.9,2-1.6,3-2.4v-42.9
					C820.6,161.6,817.4,163,814.2,164.6z"/>
				<path class="st0" d="M832.9,164.5v-7c0,0,0.7-0.2,1.9-0.5c-3.7,0.9-7.4,2-10.9,3.3v42.9c5-3.7,10.6-6.4,16.8-8.1
					c0.7-0.2,1.3-0.4,2-0.6c2.3-0.8,4.7-1.4,7.1-1.8c2.6-0.5,5.1-0.7,7.5-0.7v-21.9L832.9,164.5z"/>
				<path class="st0" d="M832.9,164.5l24.4,5.6l0-15.8c-0.2,0-0.3,0-0.5,0c-0.9,0-1.9,0.1-2.8,0.3c-0.7,0.1-1.3,0.2-2,0.2
					c-1,0-2,0.1-2.9,0.2c-1.3,0.2-2.6,10.3-3.9,10v-9.8c-2.4,0.3-4.8,0.7-7.2,1.2c-1,0.2-1.8,0.4-2.5,0.6c-0.2,0-0.3,0.1-0.5,0.1
					c-1.2,0.3-1.9,0.5-1.9,0.5V164.5z"/>
			</g>
		</g>
	</g>
	<g>
		<path class="st0" d="M857.3,170.1v-15.8c0.1,0,0.3,0,0.4,0c0,0,0.1,0,0.1,0c-0.2,0-0.3,0-0.5,0L857.3,170.1z"/>
		<path class="st0" d="M879.3,157c-0.7-0.2-1.6-0.4-2.5-0.6C877.6,156.6,878.5,156.8,879.3,157z"/>
		<path class="st0" d="M857.3,154.3v15.8V192c0,0,0,0,0,0L857.3,154.3C857.3,154.3,857.3,154.3,857.3,154.3z"/>
		<path class="st0" d="M869.5,165c-1.3,0.3-2.6-9.8-3.9-10c-1-0.1-1.9-0.2-2.9-0.2c-0.7,0-1.3-0.1-2-0.2c-0.9-0.2-1.9-0.3-2.8-0.3
			c3.8-0.1,7.9,0.3,11.6,0.9v0.1V165z"/>
		<path class="st0" d="M879.8,157.1c-0.2,0-0.3-0.1-0.5-0.1C879.5,157,879.7,157.1,879.8,157.1z"/>
		<path class="st0" d="M869.5,155.1c2.7,0.4,5.2,0.9,7.2,1.3c-2.4-0.5-4.8-0.9-7.2-1.2V155.1z"/>
		<g>
			<path class="st0" d="M900.4,164.6c9.8,4.9,18.6,11.1,26.5,18.6c8.2,9.1,14.6,19.5,19.4,31.1c4.7,11.6,7.1,23.4,7.1,35.5v117.7
				c0,8.6-7,15.6-15.6,15.6h-11c-8.6,0-15.6-7-15.6-15.6v-104c0-3.3-0.1-6.5-0.2-9.8c-0.2-3.3-0.4-6.5-0.7-9.8
				c-0.3-2.9-0.8-6-1.5-9.3c-0.7-3.3-1.3-6.5-2-9.8c-2.6-7.5-6.9-13.9-13-19.1c-1-0.9-2-1.6-3-2.4v-42.9
				C894,161.6,897.2,163,900.4,164.6z"/>
			<path class="st0" d="M881.8,164.5v-7c0,0-0.7-0.2-1.9-0.5c3.7,0.9,7.4,2,10.9,3.3v42.9c-4.9-3.7-10.4-6.3-16.5-8
				c-0.9-0.3-1.7-0.5-2.6-0.8c-2.2-0.8-4.5-1.3-6.8-1.7c-2.6-0.5-5.1-0.7-7.5-0.7v-21.9L881.8,164.5z"/>
			<path class="st0" d="M881.8,164.5l-24.4,5.6l0-15.8c0.2,0,0.3,0,0.5,0c0.9,0,1.9,0.1,2.8,0.3c0.7,0.1,1.3,0.2,2,0.2
				c1,0,2,0.1,2.9,0.2c1.3,0.2,2.6,10.3,3.9,10v-9.8c2.4,0.3,4.8,0.7,7.2,1.2c1,0.2,1.8,0.4,2.5,0.6c0.2,0,0.3,0.1,0.5,0.1
				c1.2,0.3,1.9,0.5,1.9,0.5V164.5z"/>
		</g>
	</g>
</g>
<g>
	<path class="st0" d="M386.1,119.7c0-13.7,7-20.7,21.1-21c14.1-0.2,21.1,6.7,21.1,20.5c0,13.8-6.7,20.7-20.2,20.7
		C393.5,140.2,386.1,133.5,386.1,119.7z"/>
</g>
<path class="st0" d="M403.7,383.1h11.1c8.6,0,15.6-7,15.6-15.6v-180c0-8.6-7-15.6-15.6-15.6h-11.1c-8.6,0-15.6,7-15.6,15.6v180
	C388.1,376.1,395.1,383.1,403.7,383.1z"/>
<g>
</g>
<path class="st1" d="M2.4,16.1l115.8,149.6c6.6,8.5,7,20.3,1,29.3L1.7,369.4C-2.8,376.1,2,385,10,385h45.2
	c13.8,0,26.8-6.6,34.9-17.9l117.9-163.7c8.6-11.9,8.4-28.1-0.6-39.8L94.8,16.8C86.7,6.2,74.1,0,60.7,0H10.3C2,0-2.7,9.6,2.4,16.1z"
	/>
<path class="st1" d="M236.6,210.7l98.9,158.8c4.5,6.6-0.3,15.6-8.3,15.6H282c-13.8,0-26.8-6.6-34.9-17.9l-56.5-94.7L236.6,210.7z"/>
<path class="st1" d="M190.6,97.1l52.3-80.3C251,6.2,263.6,0,277,0l50.4,0c8.3,0,13,9.5,7.9,16.1l-98.8,139.6L190.6,97.1z"/>
</svg>
