<svg xmlns="http://www.w3.org/2000/svg" xmlns:xlink="http://www.w3.org/1999/xlink" version="1.1" id="Layer_1" x="0px" y="0px" viewBox="0 0 337.4 385" style="enable-background:new 0 0 337.4 385;" xml:space="preserve">
<style type="text/css">
	.st0{fill:#FFFFFF;}
</style>
<path class="st0" d="M2.4,16.1l115.8,149.6c6.6,8.5,7,20.3,1,29.3L1.7,369.4C-2.8,376.1,2,385,10,385h45.2  c13.8,0,26.8-6.6,34.9-17.9L208,203.4c8.6-11.9,8.4-28.1-0.6-39.8L94.8,16.8C86.7,6.2,74.1,0,60.7,0H10.3C2,0-2.7,9.6,2.4,16.1z"/>
<path class="st0" d="M236.6,210.7l98.9,158.8c4.5,6.6-0.3,15.6-8.3,15.6H282c-13.8,0-26.8-6.6-34.9-17.9l-56.5-94.7L236.6,210.7z"/>
<path class="st0" d="M190.6,97.1l52.3-80.3C251,6.2,263.6,0,277,0h50.4c8.3,0,13,9.5,7.9,16.1l-98.8,139.6L190.6,97.1z"/>
</svg>